<svg xmlns="http://www.w3.org/2000/svg" viewBox="0 0 74.92 62.08"><defs><style>.cls-1{fill:#f30;}.cls-2,.cls-3{fill:none;stroke:#f30;stroke-width:1.5px;}.cls-2{stroke-miterlimit:10;}.cls-3{stroke-linecap:round;stroke-linejoin:round;}</style></defs><g id="Слой_10" data-name="Слой 10"><circle class="cls-1" cx="6.42" cy="56.71" r="2"/><circle class="cls-1" cx="13.12" cy="56.71" r="2"/><circle class="cls-1" cx="19.81" cy="56.71" r="2"/><circle class="cls-1" cx="26.51" cy="56.71" r="2"/><circle class="cls-1" cx="33.2" cy="56.71" r="2"/><circle class="cls-1" cx="39.9" cy="56.71" r="2"/><path class="cls-2" d="M26.83,17.64a3.69,3.69,0,0,1-.27,1.41,3.91,3.91,0,0,1-3.65,2.51,4,4,0,0,1-3.62-2.39v0a3.77,3.77,0,0,1-.3-1.51,3.92,3.92,0,1,1,7.84,0Z"/><path class="cls-2" d="M22.91,13.71,54,2a4.66,4.66,0,0,1,2.56-.62,3.83,3.83,0,0,1,1.82.44,2.62,2.62,0,0,1,1,1s4.32,6.36,4.49,8a1.85,1.85,0,0,1-3.26,1.44c-.71-.92-1.77-2.28-2.9-3.64a2.77,2.77,0,0,0-3.27-.76L24.64,21.15"/><line class="cls-2" x1="26.27" y1="20.43" x2="33.27" y2="9.62"/><line class="cls-2" x1="34.5" y1="16.76" x2="24.74" y2="13.21"/><line class="cls-2" x1="41.6" y1="13.59" x2="31.89" y2="10.33"/><line class="cls-2" x1="48.31" y1="10.41" x2="40.3" y2="7.16"/><line class="cls-2" x1="55.48" y1="7.64" x2="47.08" y2="4.64"/><line class="cls-2" x1="34.5" y1="16.76" x2="40.93" y2="6.82"/><line class="cls-2" x1="42.73" y1="13.09" x2="48.59" y2="4.03"/><line class="cls-2" x1="48.77" y1="10.47" x2="53.93" y2="2.41"/><line class="cls-2" x1="56.64" y1="7.86" x2="63.84" y2="10.84"/><circle class="cls-2" cx="56.64" cy="4.37" r="2.99"/><path class="cls-3" d="M62.38,12.92V29.17s1.83.11,1.74,2.51A1.75,1.75,0,1,1,60.75,31"/><polygon class="cls-3" points="62.28 33.41 57.24 39.05 67.32 39.05 62.28 33.41"/><rect class="cls-3" x="57.24" y="39.05" width="10.08" height="6.42"/><line class="cls-2" x1="60.76" y1="5.22" x2="61.34" y2="12.83"/><rect class="cls-2" x="1.26" y="51.76" width="43.31" height="9.14" rx="3.55"/><polyline class="cls-3" points="11.12 48.88 9.02 48.88 9.02 34.23 37.43 34.23 37.43 48.88"/><line class="cls-3" x1="9.02" y1="38.37" x2="11.14" y2="38.37"/><line class="cls-3" x1="9" y1="41.79" x2="11.12" y2="41.79"/><line class="cls-3" x1="9.02" y1="45.21" x2="11.14" y2="45.21"/><path class="cls-2" d="M29.92,34.23H16.4l2.89-15.06a4,4,0,0,0,3.62,2.39,3.91,3.91,0,0,0,3.65-2.51h.18Z"/><rect class="cls-3" x="51.49" y="49.47" width="21.49" height="11.43"/></g></svg>