<svg xmlns="http://www.w3.org/2000/svg" viewBox="0 0 74.92 62.08"><defs><style>.cls-1{fill:#f0581c;}</style></defs><title>cran_no_fon</title><g id="Слой_10" data-name="Слой 10"><circle class="cls-1" cx="6.42" cy="56.71" r="2"/><circle class="cls-1" cx="13.12" cy="56.71" r="2"/><circle class="cls-1" cx="19.81" cy="56.71" r="2"/><circle class="cls-1" cx="26.51" cy="56.71" r="2"/><circle class="cls-1" cx="33.2" cy="56.71" r="2"/><circle class="cls-1" cx="39.9" cy="56.71" r="2"/><path class="cls-1" d="M22.91,22.31a4.68,4.68,0,0,1-4.3-2.85l-.07-.16a4.53,4.53,0,0,1-.3-1.66,4.67,4.67,0,1,1,9.34,0,4.59,4.59,0,0,1-.32,1.7A4.7,4.7,0,0,1,22.91,22.31ZM20,19a3.17,3.17,0,0,0,5.82-.22,2.93,2.93,0,0,0,.22-1.14,3.17,3.17,0,1,0-6.34,0A3,3,0,0,0,20,18.85Z"/><path class="cls-1" d="M25,21.84l-.61-1.37L54.1,7.19a3.56,3.56,0,0,1,4.16,1c1.21,1.45,2.36,2.94,2.91,3.66a1.11,1.11,0,0,0,1.27.3,1.08,1.08,0,0,0,.65-1.21c-.1-1-2.61-5-4.36-7.62a1.91,1.91,0,0,0-.76-.8,3.06,3.06,0,0,0-1.46-.35,4,4,0,0,0-2.13.49l-.17.08-31,11.7L22.64,13l31-11.67a5.56,5.56,0,0,1,2.9-.7,4.55,4.55,0,0,1,2.17.53A3.4,3.4,0,0,1,60,2.5c.7,1,4.4,6.55,4.57,8.26A2.55,2.55,0,0,1,63,13.51a2.6,2.6,0,0,1-3-.78c-.55-.71-1.69-2.18-2.88-3.61a2,2,0,0,0-2.4-.56Z"/><rect class="cls-1" x="23.32" y="14.27" width="12.88" height="1.5" transform="translate(0.98 31.85) rotate(-57.09)"/><rect class="cls-1" x="28.87" y="9.8" width="1.5" height="10.37" transform="matrix(0.34, -0.94, 0.94, 0.34, 5.42, 37.71)"/><rect class="cls-1" x="36" y="6.83" width="1.5" height="10.24" transform="translate(13.72 42.99) rotate(-71.44)"/><rect class="cls-1" x="43.55" y="4.46" width="1.5" height="8.65" transform="translate(19.51 46.54) rotate(-67.92)"/><rect class="cls-1" x="50.53" y="1.68" width="1.5" height="8.91" transform="translate(28.27 52.38) rotate(-70.37)"/><rect class="cls-1" x="31.79" y="11.04" width="11.84" height="1.5" transform="translate(7.32 37.04) rotate(-57.09)"/><rect class="cls-1" x="40.26" y="7.81" width="10.79" height="1.5" transform="translate(13.66 42.24) rotate(-57.09)"/><rect class="cls-1" x="46.57" y="5.69" width="9.57" height="1.5" transform="matrix(0.54, -0.84, 0.84, 0.54, 18.23, 46.21)"/><rect class="cls-1" x="59.49" y="5.46" width="1.5" height="7.79" transform="translate(28.59 61.45) rotate(-67.54)"/><path class="cls-1" d="M56.64,8.11a3.74,3.74,0,1,1,3.74-3.74A3.75,3.75,0,0,1,56.64,8.11Zm0-6a2.24,2.24,0,1,0,2.24,2.23A2.24,2.24,0,0,0,56.64,2.14Z"/><path class="cls-1" d="M62.38,34.17a2.47,2.47,0,0,1-1.58-.55A2.68,2.68,0,0,1,60,30.85a.75.75,0,0,1,.9-.56.74.74,0,0,1,.56.9,1.25,1.25,0,0,0,.27,1.27,1,1,0,0,0,1.06.12,1,1,0,0,0,.56-.93c.06-1.62-.92-1.72-1-1.73a.75.75,0,0,1-.71-.75V12.92a.75.75,0,1,1,1.5,0V28.58a2.93,2.93,0,0,1,1.74,3.12A2.46,2.46,0,0,1,63.43,34,2.6,2.6,0,0,1,62.38,34.17Z"/><path class="cls-1" d="M67.32,39.8H57.24a.75.75,0,0,1-.68-.45.74.74,0,0,1,.13-.8l5-5.64a.77.77,0,0,1,.56-.25h0a.73.73,0,0,1,.56.25l5,5.64a.72.72,0,0,1,.12.8A.74.74,0,0,1,67.32,39.8Zm-8.4-1.5h6.72l-3.36-3.76Z"/><path class="cls-1" d="M67.32,46.21H57.24a.75.75,0,0,1-.75-.75V39.05a.75.75,0,0,1,.75-.75H67.32a.75.75,0,0,1,.75.75v6.41A.75.75,0,0,1,67.32,46.21ZM58,44.71h8.58V39.8H58Z"/><rect class="cls-1" x="60.3" y="5.21" width="1.5" height="7.64" transform="translate(-0.51 4.72) rotate(-4.41)"/><path class="cls-1" d="M41,61.65H4.81a4.31,4.31,0,0,1-4.3-4.3v-2A4.31,4.31,0,0,1,4.81,51H41a4.31,4.31,0,0,1,4.3,4.31v2A4.31,4.31,0,0,1,41,61.65ZM4.81,52.51A2.8,2.8,0,0,0,2,55.32v2a2.8,2.8,0,0,0,2.8,2.8H41a2.81,2.81,0,0,0,2.8-2.8v-2A2.81,2.81,0,0,0,41,52.51Z"/><path class="cls-1" d="M37.43,49.64a.75.75,0,0,1-.75-.75V35H9.77V48.14h1.35a.75.75,0,0,1,0,1.5H9a.75.75,0,0,1-.75-.75V34.23A.75.75,0,0,1,9,33.48H37.43a.76.76,0,0,1,.75.75V48.89A.76.76,0,0,1,37.43,49.64Z"/><path class="cls-1" d="M11.19,39.12h-2a.75.75,0,0,1,0-1.5h2a.75.75,0,0,1,0,1.5Z"/><path class="cls-1" d="M11.17,42.54h-2a.75.75,0,0,1,0-1.5h2a.75.75,0,0,1,0,1.5Z"/><path class="cls-1" d="M11.19,46h-2a.75.75,0,0,1,0-1.5h2a.75.75,0,0,1,0,1.5Z"/><path class="cls-1" d="M30.84,35H15.49L19,16.63l1,2.24a3.17,3.17,0,0,0,5.88-.09l.19-.48h1.3Zm-13.53-1.5H29L26.34,20.8a4.69,4.69,0,0,1-3.43,1.51A4.64,4.64,0,0,1,19.7,21Z"/><path class="cls-1" d="M73,61.65H51.49a.75.75,0,0,1-.75-.75V49.47a.75.75,0,0,1,.75-.75H73a.75.75,0,0,1,.75.75V60.9A.75.75,0,0,1,73,61.65Zm-20.73-1.5h20V50.22h-20Z"/></g></svg>