<svg xmlns="http://www.w3.org/2000/svg" viewBox="0 0 74.92 62.27"><defs><style>.cls-1,.cls-2{fill:#fff;stroke:#f30;stroke-width:1.5px;}.cls-1{stroke-miterlimit:10;}.cls-2{stroke-linecap:round;stroke-linejoin:round;}.cls-3{fill:#f30;}</style></defs><g id="Слой_9" data-name="Слой 9"><rect class="cls-1" x="1.26" y="51.54" width="43.31" height="9.14" rx="3.55"/><polyline class="cls-2" points="11.12 48.66 9.02 48.66 9.02 34.01 37.43 34.01 37.43 48.66"/><line class="cls-2" x1="9.02" y1="38.14" x2="11.14" y2="38.14"/><line class="cls-2" x1="9" y1="41.57" x2="11.12" y2="41.57"/><line class="cls-2" x1="9.02" y1="44.99" x2="11.14" y2="44.99"/><path class="cls-1" d="M29.92,34H16.4l2.89-15.06a4,4,0,0,0,3.62,2.39,3.91,3.91,0,0,0,3.65-2.51h.18Z"/><rect class="cls-2" x="51.49" y="49.24" width="21.49" height="11.43"/><path class="cls-1" d="M22.91,13.49,54,1.79a4.6,4.6,0,0,1,2.56-.63,3.83,3.83,0,0,1,1.82.44,2.64,2.64,0,0,1,1,1s4.32,6.35,4.49,8a1.85,1.85,0,0,1-3.26,1.44c-.71-.92-1.77-2.28-2.9-3.64a2.77,2.77,0,0,0-3.27-.76L24.64,20.93"/><line class="cls-1" x1="26.27" y1="20.2" x2="33.27" y2="9.39"/><line class="cls-1" x1="34.5" y1="16.53" x2="24.74" y2="12.99"/><line class="cls-1" x1="41.6" y1="13.36" x2="31.89" y2="10.1"/><line class="cls-1" x1="48.31" y1="10.18" x2="40.3" y2="6.93"/><line class="cls-1" x1="55.48" y1="7.41" x2="47.08" y2="4.41"/><line class="cls-1" x1="34.5" y1="16.53" x2="40.93" y2="6.6"/><line class="cls-1" x1="42.73" y1="12.86" x2="48.59" y2="3.8"/><line class="cls-1" x1="48.77" y1="10.24" x2="53.93" y2="2.19"/><line class="cls-1" x1="56.64" y1="7.64" x2="63.84" y2="10.61"/><circle class="cls-1" cx="56.64" cy="4.15" r="2.99"/><path class="cls-2" d="M62.38,12.69V29s1.83.1,1.74,2.5a1.75,1.75,0,1,1-3.37-.66"/><polygon class="cls-2" points="62.28 33.19 57.24 38.82 67.32 38.82 62.28 33.19"/><rect class="cls-2" x="57.24" y="38.82" width="10.08" height="6.42"/><line class="cls-1" x1="60.76" y1="4.99" x2="61.34" y2="12.6"/><path class="cls-1" d="M26.83,17.41a3.65,3.65,0,0,1-.27,1.41,3.91,3.91,0,0,1-3.65,2.51,4,4,0,0,1-3.62-2.39h0a3.85,3.85,0,0,1-.3-1.52,3.92,3.92,0,1,1,7.84,0Z"/><circle class="cls-3" cx="6.42" cy="56.48" r="2"/><circle class="cls-3" cx="13.12" cy="56.48" r="2"/><circle class="cls-3" cx="19.81" cy="56.48" r="2"/><circle class="cls-3" cx="26.51" cy="56.48" r="2"/><circle class="cls-3" cx="33.2" cy="56.48" r="2"/><circle class="cls-3" cx="39.9" cy="56.48" r="2"/></g></svg>