<svg xmlns="http://www.w3.org/2000/svg" viewBox="0 0 131.42 131.43"><defs><style>.cls-1{fill:#ac3d36;}</style></defs><title>doc_no_fon</title><g id="Слой_2" data-name="Слой 2"><path class="cls-1" d="M96.08,111.33H31.87a2,2,0,0,1-2-2V28a2,2,0,0,1,2-2H49.18a2,2,0,0,1,0,4H33.87v77.34H94.08V30H78.76a2,2,0,0,1,0-4H96.08a2,2,0,0,1,2,2v81.34A2,2,0,0,1,96.08,111.33Z"/><path class="cls-1" d="M104.38,121.84H23.57a2,2,0,0,1-2-2V17.48a2,2,0,0,1,2-2H48.91a2,2,0,0,1,0,4H25.57v98.36h76.81V19.48H78.76a2,2,0,0,1,0-4h25.62a2,2,0,0,1,2,2V119.84A2,2,0,0,1,104.38,121.84Z"/><path class="cls-1" d="M78.76,38.75H49.18a2,2,0,0,1-2-2V7.17a2,2,0,0,1,2-2H78.76a2,2,0,0,1,2,2V36.75A2,2,0,0,1,78.76,38.75Zm-27.58-4H76.76V9.17H51.18Z"/><path class="cls-1" d="M87.81,62.29H40.13a2,2,0,0,1,0-4H87.81a2,2,0,0,1,0,4Z"/><path class="cls-1" d="M87.81,74.94H40.13a2,2,0,1,1,0-4H87.81a2,2,0,0,1,0,4Z"/><path class="cls-1" d="M87.81,87.59H40.13a2,2,0,1,1,0-4H87.81a2,2,0,0,1,0,4Z"/></g></svg>