<svg xmlns="http://www.w3.org/2000/svg" viewBox="0 0 74.92 66.47"><defs><style>.cls-1{fill:#fff;}.cls-2{fill:none;stroke-linecap:round;stroke-linejoin:round;stroke-width:2px;}.cls-2,.cls-3{stroke:#ff7322;}.cls-3{fill:#ff7322;stroke-miterlimit:10;}</style></defs><title>item_fon</title><g id="Слой_7" data-name="Слой 7"><path class="cls-1" d="M1.49,23.38h26.1S35.43,9.05,38.76,3l.45,20.36h5.56a27.64,27.64,0,0,1,4-18.29c3.49,6.14,4.86,12.24,4,18.29h5.57l.27-13.47C60,7.26,62.51,6.57,65.31,6.44,69,6.55,71.93,7.18,73,9l.38,48.78-6.2,5.91L1.49,64V23.38"/><line class="cls-2" x1="39.45" y1="23.38" x2="41.88" y2="23.38"/><path class="cls-2" d="M22.73,23.38H1.49V64H65.42a5.19,5.19,0,0,0,1.75-.3c2.06-.71,6.54-2.86,6.45-8.08-.12-6.77-3.53-8.33-8.66-8.33s-6.61,3.56-6.61,3.56V11.33A4.13,4.13,0,0,1,60.18,8a9.27,9.27,0,0,1,5.13-1.51c3.84,0,8.31.85,8.31,4.81V55.64"/><line class="cls-2" x1="52.78" y1="23.38" x2="55.23" y2="23.38"/><polygon class="cls-2" points="39.21 1.45 8.46 59.49 39.21 59.49 39.21 1.45"/><polygon class="cls-2" points="30.68 32.18 21.35 49.79 30.68 49.79 30.68 32.18"/><line class="cls-2" x1="21.69" y1="55.64" x2="21.69" y2="58.53"/><line class="cls-2" x1="26.02" y1="57.08" x2="26.02" y2="58.53"/><line class="cls-2" x1="33.83" y1="57.08" x2="33.83" y2="58.53"/><line class="cls-2" x1="37" y1="54.2" x2="39.21" y2="54.2"/><line class="cls-2" x1="35.71" y1="49.79" x2="38.76" y2="49.79"/><polygon class="cls-2" points="52.78 14.33 48.78 3.47 44.77 14.33 44.77 60.13 52.78 60.13 52.78 14.33"/><line class="cls-2" x1="29.86" y1="55.44" x2="29.86" y2="58.53"/><line class="cls-2" x1="37" y1="45.82" x2="38.76" y2="45.82"/><line class="cls-2" x1="35.71" y1="41.98" x2="38.76" y2="41.98"/><line class="cls-2" x1="37.24" y1="38.29" x2="38.76" y2="38.29"/><line class="cls-2" x1="35.43" y1="34" x2="38.76" y2="34"/><line class="cls-2" x1="37.59" y1="29.68" x2="38.76" y2="29.68"/><line class="cls-2" x1="35.91" y1="25.83" x2="39.21" y2="25.83"/><line class="cls-2" x1="37.88" y1="21.46" x2="38.48" y2="21.46"/><line class="cls-2" x1="36.39" y1="17.61" x2="38.76" y2="17.61"/><line class="cls-2" x1="37.44" y1="14.33" x2="38.76" y2="14.33"/><line class="cls-2" x1="48.78" y1="50.87" x2="52.78" y2="50.87"/><rect class="cls-3" x="44.77" y="54.2" width="7.65" height="5.73"/><polyline class="cls-2" points="44.77 14.33 48.78 17.82 52.78 14.33"/></g></svg>