<svg xmlns="http://www.w3.org/2000/svg" viewBox="0 0 74.92 65.6"><defs><style>.cls-1{fill:#ff7322;}</style></defs><title>item_no_fon</title><g id="Слой_5" data-name="Слой 5"><path class="cls-1" d="M41.88,24.07H39.45a.75.75,0,0,1,0-1.5h2.43a.75.75,0,0,1,0,1.5Z"/><path class="cls-1" d="M65.42,64.7H1.49A.75.75,0,0,1,.74,64V23.32a.76.76,0,0,1,.75-.75H22.73a.75.75,0,0,1,0,1.5H2.24V63.2H65.42A4.6,4.6,0,0,0,66.93,63c2.25-.78,6-2.77,5.94-7.36h0C72.76,49.26,69.76,48,65,48c-4.56,0-5.86,3-5.91,3.1a.75.75,0,0,1-1.45-.28V11.27a4.87,4.87,0,0,1,2.13-4,10.09,10.09,0,0,1,5.58-1.66c7.48,0,9.06,3,9.06,5.57V55.57c.1,5.74-4.83,8.06-7,8.8A6.21,6.21,0,0,1,65.42,64.7ZM65,46.49c3,0,6.14.48,7.91,3.15V11.19c0-2.7-2.55-4.07-7.56-4.07a8.59,8.59,0,0,0-4.68,1.36,3.47,3.47,0,0,0-1.53,2.79v37.3A8.29,8.29,0,0,1,65,46.49Z"/><path class="cls-1" d="M55.23,24.07H52.78a.75.75,0,0,1,0-1.5h2.45a.75.75,0,0,1,0,1.5Z"/><path class="cls-1" d="M39.21,60.17H8.46a.74.74,0,0,1-.64-.36.78.78,0,0,1,0-.74L38.54,1a.76.76,0,0,1,.85-.38.75.75,0,0,1,.57.73v58A.75.75,0,0,1,39.21,60.17Zm-29.5-1.5H38.46V4.41Z"/><path class="cls-1" d="M30.68,50.48H21.35a.76.76,0,0,1-.64-.36.78.78,0,0,1,0-.74L30,31.76a.75.75,0,0,1,.85-.37.74.74,0,0,1,.56.72V49.73A.75.75,0,0,1,30.68,50.48ZM22.6,49h7.33V35.13Z"/><path class="cls-1" d="M21.69,59.21a.74.74,0,0,1-.75-.75V55.58a.75.75,0,0,1,1.5,0v2.88A.75.75,0,0,1,21.69,59.21Z"/><path class="cls-1" d="M26,59.21a.75.75,0,0,1-.75-.75V57a.75.75,0,1,1,1.5,0v1.44A.75.75,0,0,1,26,59.21Z"/><path class="cls-1" d="M33.83,59.21a.75.75,0,0,1-.75-.75V57a.75.75,0,1,1,1.5,0v1.44A.75.75,0,0,1,33.83,59.21Z"/><path class="cls-1" d="M39.21,54.88H37a.75.75,0,0,1,0-1.5h2.21a.75.75,0,0,1,0,1.5Z"/><path class="cls-1" d="M38.76,50.48h-3a.75.75,0,0,1,0-1.5h3a.75.75,0,0,1,0,1.5Z"/><path class="cls-1" d="M52.78,60.82h-8a.76.76,0,0,1-.75-.75V14.26a.85.85,0,0,1,0-.26l4-10.85a.75.75,0,0,1,1.41,0l4,10.85a.82.82,0,0,1,0,.26V60.07A.75.75,0,0,1,52.78,60.82Zm-7.26-1.5H52V14.4L48.78,5.57,45.52,14.4Z"/><path class="cls-1" d="M29.86,59.21a.75.75,0,0,1-.75-.75V55.38a.75.75,0,0,1,1.5,0v3.08A.74.74,0,0,1,29.86,59.21Z"/><path class="cls-1" d="M38.76,46.51H37A.75.75,0,0,1,37,45h1.76a.75.75,0,0,1,0,1.5Z"/><path class="cls-1" d="M38.76,42.66h-3a.75.75,0,0,1,0-1.5h3a.75.75,0,0,1,0,1.5Z"/><path class="cls-1" d="M38.76,39H37.24a.75.75,0,0,1,0-1.5h1.52a.75.75,0,0,1,0,1.5Z"/><path class="cls-1" d="M38.76,34.69H35.43a.75.75,0,0,1,0-1.5h3.33a.75.75,0,0,1,0,1.5Z"/><path class="cls-1" d="M38.76,30.36H37.59a.75.75,0,0,1,0-1.5h1.17a.75.75,0,1,1,0,1.5Z"/><path class="cls-1" d="M39.21,26.51h-3.3a.75.75,0,0,1,0-1.5h3.3a.75.75,0,0,1,0,1.5Z"/><path class="cls-1" d="M38.48,22.15h-.6a.75.75,0,0,1,0-1.5h.6a.75.75,0,0,1,0,1.5Z"/><path class="cls-1" d="M38.76,18.3H36.39a.75.75,0,0,1,0-1.5h2.37a.75.75,0,0,1,0,1.5Z"/><path class="cls-1" d="M38.76,15H37.44a.75.75,0,0,1,0-1.5h1.32a.75.75,0,0,1,0,1.5Z"/><path class="cls-1" d="M52.78,51.56h-4a.75.75,0,0,1,0-1.5h4a.75.75,0,0,1,0,1.5Z"/><rect class="cls-1" x="44.77" y="54.13" width="7.65" height="5.73"/><path class="cls-1" d="M48.78,18.5a.77.77,0,0,1-.5-.18l-4-3.49a.75.75,0,0,1-.08-1.06.76.76,0,0,1,1.06-.07l3.52,3.06,3.51-3.06a.75.75,0,1,1,1,1.13l-4,3.49A.76.76,0,0,1,48.78,18.5Z"/></g></svg>