<svg xmlns="http://www.w3.org/2000/svg" viewBox="0 0 74.92 65.6"><defs><style>.cls-1{fill:none;stroke:#ff6632;stroke-linecap:round;stroke-linejoin:round;stroke-width:1.5px;}.cls-2{fill:#ff6632;}</style></defs><g id="Слой_5" data-name="Слой 5"><line class="cls-1" x1="39.45" y1="23.32" x2="41.88" y2="23.32"/><path class="cls-1" d="M22.73,23.32H1.49V64H65.42a5.44,5.44,0,0,0,1.75-.29c2.06-.71,6.54-2.86,6.45-8.08-.12-6.77-3.53-8.34-8.66-8.34s-6.61,3.57-6.61,3.57V11.27a4.16,4.16,0,0,1,1.83-3.39,9.35,9.35,0,0,1,5.13-1.51c3.84,0,8.31.85,8.31,4.82V55.58"/><line class="cls-1" x1="52.78" y1="23.32" x2="55.23" y2="23.32"/><polygon class="cls-1" points="39.21 1.39 8.46 59.42 39.21 59.42 39.21 1.39"/><polygon class="cls-1" points="30.68 32.11 21.35 49.73 30.68 49.73 30.68 32.11"/><line class="cls-1" x1="21.69" y1="55.58" x2="21.69" y2="58.46"/><line class="cls-1" x1="26.02" y1="57.02" x2="26.02" y2="58.46"/><line class="cls-1" x1="33.83" y1="57.02" x2="33.83" y2="58.46"/><line class="cls-1" x1="37" y1="54.13" x2="39.21" y2="54.13"/><line class="cls-1" x1="35.71" y1="49.73" x2="38.76" y2="49.73"/><polygon class="cls-1" points="52.78 14.27 48.78 3.41 44.77 14.27 44.77 60.06 52.78 60.06 52.78 14.27"/><line class="cls-1" x1="29.86" y1="55.38" x2="29.86" y2="58.46"/><line class="cls-1" x1="37" y1="45.76" x2="38.76" y2="45.76"/><line class="cls-1" x1="35.71" y1="41.91" x2="38.76" y2="41.91"/><line class="cls-1" x1="37.24" y1="38.23" x2="38.76" y2="38.23"/><line class="cls-1" x1="35.43" y1="33.94" x2="38.76" y2="33.94"/><line class="cls-1" x1="37.59" y1="29.61" x2="38.76" y2="29.61"/><line class="cls-1" x1="35.91" y1="25.76" x2="39.21" y2="25.76"/><line class="cls-1" x1="37.88" y1="21.4" x2="38.48" y2="21.4"/><line class="cls-1" x1="36.39" y1="17.55" x2="38.76" y2="17.55"/><line class="cls-1" x1="37.44" y1="14.26" x2="38.76" y2="14.26"/><line class="cls-1" x1="48.78" y1="50.81" x2="52.78" y2="50.81"/><rect class="cls-2" x="44.77" y="54.13" width="7.65" height="5.73"/><polyline class="cls-1" points="44.77 14.27 48.78 17.75 52.78 14.27"/></g></svg>