<svg xmlns="http://www.w3.org/2000/svg" viewBox="0 0 118.44 118.44"><defs><style>.cls-1{fill:#f6773e;}</style></defs><title>logo_no_fon</title><g id="Слой_3" data-name="Слой 3"><rect class="cls-1" x="32.34" y="38.03" width="53.77" height="12.91" rx="1"/><rect class="cls-1" x="32.34" y="67.51" width="53.77" height="12.91" rx="1"/><rect class="cls-1" x="32.34" y="52.77" width="25.95" height="12.91" rx="1"/><rect class="cls-1" x="60.16" y="52.77" width="25.95" height="12.91" rx="1"/><path class="cls-1" d="M59.22,110.16a50.94,50.94,0,1,1,50.94-50.94A51,51,0,0,1,59.22,110.16Zm0-92.88a41.94,41.94,0,1,0,41.94,41.94A42,42,0,0,0,59.22,17.28Z"/><polygon class="cls-1" points="86.11 6.26 77.75 2.79 73.05 10.71 83.75 15.14 86.11 6.26"/><polygon class="cls-1" points="104.33 20.58 97.93 14.18 90.56 19.7 98.75 27.88 104.33 20.58"/><polygon class="cls-1" points="115.69 40.78 112.22 32.42 103.3 34.7 107.73 45.4 115.69 40.78"/><polygon class="cls-1" points="118.44 63.8 118.44 54.75 109.33 53.43 109.33 65.01 118.44 63.8"/><polygon class="cls-1" points="112.19 86.11 115.65 77.75 107.73 73.05 103.3 83.75 112.19 86.11"/><polygon class="cls-1" points="97.86 104.33 104.26 97.93 98.75 90.56 90.56 98.75 97.86 104.33"/><polygon class="cls-1" points="77.66 115.69 86.02 112.22 83.75 103.3 73.05 107.73 77.66 115.69"/><polygon class="cls-1" points="54.65 118.44 63.7 118.44 65.01 109.33 53.43 109.33 54.65 118.44"/><polygon class="cls-1" points="32.33 112.19 40.69 115.65 45.4 107.73 34.7 103.3 32.33 112.19"/><polygon class="cls-1" points="14.11 97.86 20.51 104.26 27.88 98.75 19.7 90.56 14.11 97.86"/><polygon class="cls-1" points="2.76 77.66 6.22 86.02 15.14 83.75 10.71 73.05 2.76 77.66"/><polygon class="cls-1" points="0 54.65 0 63.7 9.11 65.01 9.11 53.43 0 54.65"/><polygon class="cls-1" points="6.26 32.33 2.79 40.69 10.71 45.4 15.14 34.7 6.26 32.33"/><polygon class="cls-1" points="20.58 14.11 14.18 20.51 19.7 27.88 27.88 19.7 20.58 14.11"/><polygon class="cls-1" points="40.78 2.76 32.42 6.22 34.7 15.14 45.4 10.71 40.78 2.76"/><polygon class="cls-1" points="63.8 0 54.75 0 53.43 9.11 65.01 9.11 63.8 0"/></g></svg>