<svg id="Слой_1" data-name="Слой 1" xmlns="http://www.w3.org/2000/svg" viewBox="0 0 131.42 131.43"><defs><style>.cls-1{fill:#ac3d36;}</style></defs><title>play_no_fon </title><path class="cls-1" d="M65.73,131.4a65.7,65.7,0,1,1,65.7-65.7A65.77,65.77,0,0,1,65.73,131.4ZM65.73,6a59.7,59.7,0,1,0,59.7,59.7A59.77,59.77,0,0,0,65.73,6Z"/><path class="cls-1" d="M49.21,97.73a2.48,2.48,0,0,1-2.5-2.5V35.92a2.49,2.49,0,0,1,3.82-2.12L98.06,63.45a2.5,2.5,0,0,1,0,4.25L50.53,97.35A2.41,2.41,0,0,1,49.21,97.73Zm2.5-57.31V90.73L92,65.57Z"/></svg>