<svg xmlns="http://www.w3.org/2000/svg" viewBox="0 0 74.92 93.31"><defs><style>.cls-1,.cls-2{fill:#fff;}.cls-2,.cls-3{stroke:#cd3c11;stroke-linecap:round;stroke-linejoin:round;stroke-width:2px;}.cls-3{fill:none;}</style></defs><title>stroit_fon</title><g id="Слой_6" data-name="Слой 6"><rect class="cls-1" x="20.44" y="31.62" width="33.46" height="4.48"/><path class="cls-2" d="M44.86,5.72c8.4,2.75,10.62,10.43,11,18.26h0c2.41,2.68,4.24,4.1,5.3,7.63H13.64c1.06-3.53,2.89-4.95,5.3-7.63h0c.39-7.63,4-15.12,11.36-18"/><polyline class="cls-2" points="32.93 12.45 32.93 1.55 41.88 1.55 41.88 12.45"/><path class="cls-2" d="M20.92,35.51c0,9.58,7.38,18.94,16.49,18.94S53.9,45.09,53.9,35.51"/><polygon class="cls-1" points="2.54 59.45 72.39 59.15 61.18 91.75 13.3 91.75 2.54 59.45"/><polyline class="cls-3" points="62.01 89.34 61.18 91.75 13.64 91.85 12.8 89.39"/><polyline class="cls-3" points="6.15 69.98 2.44 59.15 72.39 59.15 68.7 69.89"/><path class="cls-2" d="M5.45,72.78S5.92,86,10.51,86.54c4.41.54,6.81.68,8.71-4.08,1.56-3.92,1.8-10.52-.29-10C14.21,73.55,10,74.09,5.45,72.78Z"/><path class="cls-2" d="M69.67,72.78S69.2,86,64.61,86.54c-4.41.54-6.81.68-8.7-4.08-1.56-3.92-1.8-10.52.29-10C60.92,73.55,65.1,74.09,69.67,72.78Z"/><path class="cls-2" d="M2.2,58.5s-2.39-5.23,3.25-6.84,6.71.78,7,1.17,0,6.32,0,6.32Z"/><path class="cls-2" d="M12.54,53.26c0,3.79-5.24,2.59-5.24,2.59V59H13Z"/><path class="cls-2" d="M72.61,58.5s2.4-5.23-3.24-6.84-6.72.78-7,1.17,0,6.32,0,6.32Z"/><path class="cls-2" d="M62.27,53.26c.06,3.79,5.25,2.59,5.25,2.59V59H61.87Z"/></g></svg>